# xmcd CD database file
#
# Track frame offsets:
#	150
#	33697
#	61779
#	96194
#	129131
#	176500
#
# Disc length: 2853 seconds
#
# Revision: 0
# Processed by: cddbd v1.5.2PL0 Copyright (c) Steve Scherf et al.
# Submitted via: CDex 1.51
#
DISCID=450b2306
DTITLE=Unlimited Clasics - Elements Body and Soul
DYEAR=2004
DGENRE=New Age
TTITLE0=Inner Beuty
TTITLE1=Chrisma
TTITLE2=Bella Donna
TTITLE3=Flower Power
TTITLE4=Charming Roses
TTITLE5=Inner Beauty Reprise
EXTD=YEAR: 2004
EXTT0=
EXTT1=
EXTT2=
EXTT3=
EXTT4=
EXTT5=
PLAYORDER=
